# xmcd
#
# Track frame offsets:
#	150
#	11992
#	30341
#	47797
#	59458
#	71117
#	91018
#	103884
#	115495
#	130970
#	150722
#	160959
#	173462
#	184949
#	202175
#	223588
#	234613
#
# Disc length: 3155 seconds
#
# Revision: 0
# Processed by: cddbd v1.5.1PL2 Copyright (c) Steve Scherf et al.
# Submitted via: dBpowerAMP V4.0
#
DISCID=f50c5111
DTITLE=The Sommers Family Band - Sunny Side of the Mountain
DYEAR=1900
DGENRE=
TTITLE0=Nashville Blues
TTITLE1=Across The Great Divide
TTITLE2=Waves On The Sea
TTITLE3=If Wishes Were Horses
TTITLE4=Rabbit In A Log
TTITLE5=Lost Cave
TTITLE6=Sunny Side Of The Mountain
TTITLE7=Gorgia Stomp
TTITLE8=Take Me Back To My Sweet
TTITLE9=The Coo Coo Bird
TTITLE10=Armadillo Breakdown
TTITLE11=Wildwood Flower
TTITLE12=Roll In My Sweet Baby's Arms
TTITLE13=Voice From On High
TTITLE14=Shady Grove
TTITLE15=Cinch Mountain Backstep
TTITLE16=Bonus 'Little Maggie'
EXTD=Bluegrass
EXTT0=
EXTT1=
EXTT2=
EXTT3=
EXTT4=
EXTT5=
EXTT6=
EXTT7=
EXTT8=
EXTT9=
EXTT10=
EXTT11=
EXTT12=
EXTT13=
EXTT14=
EXTT15=
EXTT16=
PLAYORDER=
